_________________________  Visit us at _________________________
  
http://tinym.eu  ____________________________  http://p2pdl.com


Total Recall 2012 DVDRip 400MB x264 AC3 - ViZNU

					
Genre: Action | Adventure | Sci-Fi 
Plot: A factory worker, Douglas Quaid, begins to suspect that he is a spy after visiting Rekall - a
company that provides its clients with implanted fake memories of a life they would like to have led
- goes wrong and he finds himself on the run.
Director: Len Wiseman
Stars: Colin Farrell, Bokeem Woodbine and Bryan Cranston.
Rated: Rated PG-13 for intense sequences of sci-fi violence and action, some sexual content, brief nudity,
and language. 
http://www.imdb.com/title/tt1386703/


General
Complete name                  : Total Recall 2012 DVDRip 400MB x264 AC3 - ViZNU [P2PDL]
Format                         : MPEG-4
Format profile                 : Base Media
Codec ID                       : isom
File size                      : 402 MiB
Duration                       : 1h 53mn
Overall bit rate               : 496 Kbps
Source                         : DVDR PAL DD5.1

Video
ID                             : 1
Format                         : AVC
Format/Info                    : Advanced Video Codec
Codec ID                       : avc1
Codec ID/Info                  : Advanced Video Coding
Duration                       : 1h 53mn
Bit rate                       : 429 Kbps
Maximum bit rate               : 2 523 Kbps
Width                          : 720 pixels
Height                         : 304 pixels
Display aspect ratio           : 2.35:1
Frame rate mode                : Constant
Frame rate                     : 25.000 fps
Stream size                    : 348 MiB (86%)
Writing library                : x264 core 125

Audio
ID                             : 2
Format                         : AC-3
Format/Info                    : Audio Coding 3
Codec ID                       : ac-3
Duration                       : 1h 53mn
Bit rate mode                  : Constant
Bit rate                       : 64.0 Kbps
Channel(s)                     : 2 channels
Channel positions              : Front: L R
Sampling rate                  : 44.1 KHz
Stream size                    : 51.9 MiB (13%)


Screens:

 
http://www.shotpix.com/images/79822495777507542461.png 
http://www.shotpix.com/images/91020335014454765963.png 
http://www.shotpix.com/images/50642412576930570795.png 
http://www.shotpix.com/images/85058906926281561104.png 
http://www.shotpix.com/images/44613036928350443223.png 
http://www.shotpix.com/images/00295253417826948321.png


----------------------------------------------------------------------------------------------------


Recommend to you to use latest version of VLC player. Install K-Lite Codec Pack or shark007 codecs
in case of any kind of problem in playback (For non-VLC Media Player users). Alternatively, install
Core AVC codecs, the fastest decoder that there is coupled with Community Center Codec Pack and play
on Windows Media Player Classic. Check sample to be sure.
Enjoy!


Greets to: srkfan, Vitamin_X, staff members at ExtraTorrent, TPB,KAT, 1337x, PublicHD, Ahashare,
SilverTorrent, TorrentMafia, BTScene, DigTorrent, P2PDL, and all others.


Encoder Notes: Looking For Early Access To Anything You Can Provide DVDScr, R5, DVDR, BluRay, Direct
Audio, Early Music Releases, Seedboxes, Dedicated Servers anything u can provide, Advance / Promo CDs/
DVDs. If You Got anything to offer contact me at "prg@hush.com"


Facebook Fan Page: www . facebook . com / p2pdl
